<svg width="205" height="184" viewBox="0 0 205 184" fill="none" xmlns="http://www.w3.org/2000/svg">
<g clip-path="url(#clip0_3_247)">
<path d="M31.2 123.607H39C40.3778 123.607 41.0667 124.229 41.0667 125.474V168.407C41.0667 173.252 39.7111 176.985 37 179.607C34.2889 182.274 30.5111 183.607 25.6667 183.607H15.4C10.4667 183.607 6.66667 182.296 4 179.674C1.33333 177.052 0 173.296 0 168.407V125.541C0 124.252 0.644445 123.607 1.93333 123.607H9.86667C11.2 123.607 11.8667 124.252 11.8667 125.541V167.807C11.8667 169.807 12.2889 171.229 13.1333 172.074C13.9778 172.918 15.3556 173.341 17.2667 173.341H23.7333C25.6889 173.341 27.0889 172.918 27.9333 172.074C28.7778 171.229 29.2 169.807 29.2 167.807V125.541C29.2 124.252 29.8667 123.607 31.2 123.607ZM74.6 183.607H66.2667C61.3333 183.607 57.5333 182.296 54.8667 179.674C52.2 177.052 50.8667 173.296 50.8667 168.407V151.207C50.8667 146.318 52.2 142.563 54.8667 139.941C57.5333 137.318 61.3333 136.007 66.2667 136.007H74.6C79.4444 136.007 83.2222 137.318 85.9333 139.941C88.6444 142.607 90 146.363 90 151.207V168.407C90 173.252 88.6444 176.985 85.9333 179.607C83.2222 182.274 79.4444 183.607 74.6 183.607ZM68.0667 173.407H72.8C74.8 173.407 76.2222 173.007 77.0667 172.207C77.9111 171.407 78.3333 170.007 78.3333 168.007V151.607C78.3333 149.607 77.9111 148.207 77.0667 147.407C76.2222 146.607 74.8 146.207 72.8 146.207H68.0667C66.0667 146.207 64.6667 146.607 63.8667 147.407C63.0222 148.207 62.6 149.607 62.6 151.607V168.007C62.6 170.007 63.0222 171.407 63.8667 172.207C64.6667 173.007 66.0667 173.407 68.0667 173.407ZM140.067 123.607H153.933C155.222 123.607 155.867 124.252 155.867 125.541V181.674C155.867 182.963 155.222 183.607 153.933 183.607H146.267C144.933 183.607 144.267 182.963 144.267 181.674V137.407H143.933L134.4 168.674C134.044 169.918 133.267 170.541 132.067 170.541H124.2C123.044 170.541 122.267 169.918 121.867 168.674L112.2 137.341H111.8V181.674C111.8 182.385 111.689 182.896 111.467 183.207C111.2 183.474 110.667 183.607 109.867 183.607H102.2C100.911 183.607 100.267 182.963 100.267 181.674V125.541C100.267 124.252 100.911 123.607 102.2 123.607H116.133C116.978 123.607 117.556 124.029 117.867 124.874L127.8 157.874H128.333L138.333 124.874C138.511 124.029 139.089 123.607 140.067 123.607ZM202.133 183.607H181.533C176.6 183.607 172.8 182.296 170.133 179.674C167.467 177.052 166.133 173.296 166.133 168.407V151.207C166.133 146.318 167.467 142.563 170.133 139.941C172.8 137.318 176.6 136.007 181.533 136.007H188.933C193.822 136.007 197.6 137.318 200.267 139.941C202.978 142.563 204.333 146.318 204.333 151.207V163.074C204.333 164.363 203.667 165.007 202.333 165.007H178.933C178.178 165.007 177.8 165.363 177.8 166.074V168.141C177.8 170.052 178.222 171.429 179.067 172.274C179.911 173.118 181.333 173.541 183.333 173.541H202.133C203.467 173.541 204.133 174.229 204.133 175.607V181.741C204.133 182.407 204 182.896 203.733 183.207C203.422 183.474 202.889 183.607 202.133 183.607ZM178.933 157.074H191.6C192.311 157.074 192.667 156.741 192.667 156.074V151.607C192.667 149.607 192.244 148.207 191.4 147.407C190.6 146.607 189.2 146.207 187.2 146.207H183.333C181.333 146.207 179.933 146.607 179.133 147.407C178.289 148.207 177.867 149.607 177.867 151.607V156.074C177.867 156.741 178.222 157.074 178.933 157.074Z" fill="#F8680C"/>
<path d="M115.658 30.8857C107.503 30.8857 100.89 36.3167 100.89 43.0159C100.89 49.714 107.503 55.1449 115.658 55.1449C123.814 55.1449 130.426 49.7129 130.426 43.0159C130.426 36.3167 123.814 30.8857 115.658 30.8857ZM124.926 44.3284C124.865 46.1066 124.44 47.3194 123.988 48.2628L120.782 47.4547C121.126 46.7795 121.776 45.5146 121.776 43.5735C121.776 41.8208 120.951 41.2554 120.158 41.2554C119.252 41.2554 118.626 42.1988 117.747 44.5169C116.555 47.7241 114.996 48.9901 112.414 48.9901C109.891 48.9901 107.734 47.3194 107.195 44.2209H104.271V41.5536H106.967C107.05 39.7489 107.591 37.9973 108.186 36.973L111.508 37.7811C110.854 38.913 110.257 40.5027 110.257 42.2565C110.257 43.8196 110.911 44.8694 112.016 44.8694C113.093 44.8694 113.777 44.007 114.485 41.9838C115.511 39.1003 116.924 37.1337 119.677 37.1337C122.202 37.1337 124.158 38.8043 124.728 41.6878H127.42V44.3273H124.926V44.3284ZM154.162 24.1754C153.803 23.0119 153.079 21.9945 152.098 21.2731C151.117 20.5518 149.931 20.1647 148.713 20.169C148.135 20.1687 147.56 20.257 147.009 20.4306L139.281 22.8473V34.8079L150.418 31.328C151.135 31.1064 151.8 30.7447 152.376 30.264C152.952 29.7834 153.427 29.1932 153.774 28.5277C154.123 27.8639 154.337 27.1375 154.404 26.3904C154.47 25.6434 154.388 24.8905 154.162 24.1754ZM144.26 40.8397H139.282V52.2593H144.26C145.774 52.2578 147.225 51.6559 148.296 50.5855C149.366 49.5152 149.968 48.0639 149.97 46.5501C149.968 45.0361 149.366 43.5847 148.296 42.5142C147.225 41.4437 145.774 40.8415 144.26 40.8397ZM139.281 56.6271V65.5834H144.259C147.408 65.5834 149.969 63.0215 149.969 59.8742C149.969 56.7269 147.407 54.1638 144.259 54.1638H139.281V56.6271ZM144.122 67.4869H139.282V78.9053H144.122C145.636 78.9039 147.087 78.3021 148.158 77.232C149.228 76.1619 149.831 74.7108 149.833 73.1972C149.831 71.6832 149.229 70.2316 148.158 69.161C147.088 68.0904 145.636 67.4883 144.122 67.4869ZM130.999 0.745392H88.8225V0.749826H88.0454V37.3L90.6938 36.085V3.39492H130.999V0.745392Z" fill="#F8680C"/>
<path d="M102.489 30.5055H99.9295V12.5907H112.088V15.1504H102.489V30.5055ZM131.281 30.5055H128.722V15.1504H119.126V12.5907H131.281V30.5055ZM131.281 83.9406H119.126V81.3808H128.722V70.9346H131.281V83.9406Z" fill="#F8680C"/>
<path d="M122.324 22.6489H106.97V20.0903H122.324V22.6489ZM122.324 78.1515H105.69V75.5918H122.324V78.1515Z" fill="#F8680C"/>
<path d="M136.97 8.00222V6.50452H94.7945V6.50895H94.0174V55.5895H96.6669V9.15294H134.327V87.1078H103.715C102.382 95.2648 94.5639 100.768 94.2979 100.941C94.1182 101.057 93.9172 101.138 93.7065 101.177C93.4958 101.215 93.2795 101.212 93.07 101.167C92.8605 101.122 92.662 101.037 92.4857 100.915C92.3095 100.793 92.159 100.638 92.043 100.457C91.9265 100.277 91.8466 100.076 91.8079 99.8655C91.7693 99.6546 91.7726 99.4382 91.8177 99.2287C91.8628 99.0191 91.9488 98.8205 92.0708 98.6442C92.1928 98.468 92.3483 98.3175 92.5286 98.2014C92.5873 98.1637 98.73 94.0797 100.535 87.1976C100.827 86.0845 101.046 84.9948 101.219 83.9405H112.09V81.3808H101.55C101.989 76.7613 101.495 73.3779 101.489 73.3314C101.472 73.1971 101.471 73.0612 101.487 72.9267H120.061C123.868 72.9267 127.674 70.6353 127.674 66.13C127.674 61.6247 124.323 58.7878 120.061 58.7878H90.4777V50.7472H90.44L90.4311 39.7589C86.4513 41.4883 83.6754 42.7132 83.0801 43.017C78.2776 45.4636 74.6515 51.0831 73.8355 53.349C72.8389 55.6128 50.4521 111.353 50.4521 111.353H96.8554C96.8554 111.353 108.096 106.64 114.076 100.114C116.083 97.9232 118.802 93.4467 120.339 89.7462L136.969 89.7662L136.973 8.00111H136.97V8.00222Z" fill="#F8680C"/>
</g>
<defs>
<clipPath id="clip0_3_247">
<rect width="204.333" height="184" fill="white"/>
</clipPath>
</defs>
</svg>
